<svg width="126" height="460" viewBox="0 0 126 460" fill="none" xmlns="http://www.w3.org/2000/svg">
<path d="M125.842 4.36502C126.043 4.17632 126.054 3.85991 125.865 3.65829L122.79 0.372748C122.601 0.171129 122.285 0.160653 122.083 0.349334C121.882 0.538032 121.871 0.854438 122.06 1.05606L124.793 3.97655L121.873 6.70982C121.671 6.8985 121.661 7.21491 121.849 7.41653C122.038 7.61815 122.355 7.62862 122.556 7.43994L125.842 4.36502ZM95.5003 441.5L95.0961 441.206L95.5003 441.5ZM125.517 3.50022C95.5013 2.50631 72.9229 7.97537 56.3629 18.437C39.7953 28.9034 29.3015 44.3356 23.4032 63.1675C11.6193 100.791 18.1578 152.05 31.228 204.708C44.3029 257.385 63.9478 311.581 78.4653 355.097C85.7273 376.865 91.7031 395.951 94.9433 410.854C96.5635 418.307 97.4949 424.692 97.5664 429.832C97.6382 434.99 96.8423 438.809 95.0961 441.206L95.9044 441.795C97.8458 439.129 98.639 435.038 98.5663 429.819C98.4934 424.582 97.5468 418.122 95.9204 410.642C92.6674 395.679 86.6753 376.547 79.4139 354.781C64.8847 311.23 45.261 257.094 32.1985 204.467C19.1313 151.821 12.6635 100.802 24.3575 63.4664C30.1981 44.8185 40.5643 29.6005 56.897 19.2825C73.2371 8.95968 95.5991 3.51009 125.484 4.49967L125.517 3.50022ZM95.0961 441.206C80.534 461.198 57.192 461.251 37.3107 456.203C27.3848 453.683 18.3706 449.9 11.8348 446.745C8.56792 445.168 5.92271 443.749 4.09531 442.725C3.18166 442.213 2.47258 441.8 1.99262 441.515C1.75263 441.373 1.56994 441.262 1.4476 441.188C1.38643 441.151 1.34035 441.123 1.30974 441.104C1.29444 441.094 1.283 441.087 1.27548 441.083C1.27172 441.08 1.26893 441.078 1.26714 441.077C1.26625 441.077 1.26563 441.076 1.26519 441.076C1.26482 441.076 1.26471 441.076 1.0003 441.5C0.735895 441.925 0.736272 441.925 0.736904 441.925C0.737447 441.926 0.738316 441.926 0.739403 441.927C0.741561 441.928 0.744701 441.93 0.748838 441.933C0.757081 441.938 0.769265 441.945 0.785317 441.955C0.817406 441.975 0.865016 442.004 0.927726 442.042C1.05316 442.119 1.23904 442.231 1.48235 442.375C1.96892 442.664 2.68514 443.081 3.60645 443.597C5.44894 444.63 8.1123 446.059 11.4001 447.646C17.9736 450.819 27.0531 454.63 37.0646 457.172C57.0583 462.249 80.9663 462.303 95.9044 441.795L95.0961 441.206Z" fill="#EBFCFB"/>
</svg>
